<?xml version="1.0" encoding="utf-8"?>
<!-- Generator: Adobe Illustrator 25.0.1, SVG Export Plug-In . SVG Version: 6.00 Build 0)  -->
<svg version="1.1" id="Capa_1" xmlns="http://www.w3.org/2000/svg" xmlns:xlink="http://www.w3.org/1999/xlink" x="0px" y="0px"
	 viewBox="0 0 50.2 48.9" style="enable-background:new 0 0 50.2 48.9;" xml:space="preserve">
<style type="text/css">
	.st0{fill:#FFFFFF;}
	.st1{fill:#256FB7;}
</style>
<g>
	<ellipse class="st0" cx="25.1" cy="24.45" rx="24.33" ry="23.7"/>
	<path class="st1" d="M25.2,0C10.6,0,0,9.7,0,24.5c0,15.1,10.4,24.4,25,24.4s25.2-9.7,25.2-24.4C50.2,9.6,39.7,0,25.2,0z M37.7,34.5
		c-0.2,0-0.4,0-0.6,0l0,0H13.5l0,0C9.9,34.2,7,31.1,7,27.4c0-3.4,2.4-6.3,5.7-6.9c-0.2-0.8-0.4-1.7-0.4-2.6c0-5.1,4.1-9.2,9.2-9.2
		c4.5,0,8.2,3.2,9,7.4c0.5-0.1,1-0.2,1.5-0.2c3.7,0,6.6,3,6.6,6.6c0,0.3,0,0.6-0.1,0.9c2.7,0.4,4.8,2.7,4.8,5.5
		C43.2,32,40.7,34.5,37.7,34.5z"/>
</g>
</svg>
